<?xml version="1.0" encoding="utf-8"?>
<!-- Generator: Adobe Illustrator 27.5.0, SVG Export Plug-In . SVG Version: 6.00 Build 0)  -->
<svg version="1.1" xmlns="http://www.w3.org/2000/svg" xmlns:xlink="http://www.w3.org/1999/xlink" x="0px" y="0px"
	 viewBox="0 0 500 500" style="enable-background:new 0 0 500 500;" xml:space="preserve">
<g id="BACKGROUND">
</g>
<g id="OBJECTS">
	<g>
		
			<ellipse transform="matrix(0.7071 -0.7071 0.7071 0.7071 -70.4283 246.0061)" style="fill:#EAEAEA;" cx="261.741" cy="208.018" rx="93.783" ry="93.783"/>
		<g>
			<path style="fill:#0F0F0F;" d="M244.316,248.216c1.764-0.193,3.305-0.349,4.844-0.531c4.296-0.509,8.602-0.542,12.91-0.24
				c6.071,0.426,12.065,1.379,17.997,2.734c0.172,0.039,0.347,0.067,0.517,0.113c0.431,0.117,0.626-0.048,0.752-0.48
				c0.325-1.118,0.701-2.222,1.062-3.33c3.008-9.219,9.121-15.567,17.882-19.558c5.677-2.586,11.602-3.44,17.768-3.02
				c1.157,0.079,2.302,0.243,3.498,0.476c0.138-1.454,0.306-2.852,0.397-4.255c0.387-6.008,2.069-11.656,4.646-17.067
				c0.622-1.307,1.203-2.633,1.696-3.997c1.657-4.588,1.551-9.155-0.244-13.664c-1.079-2.711-2.968-4.871-5.062-6.851
				c-3.405-3.22-7.612-4.926-11.995-6.284c-3.626-1.124-7.368-1.65-11.12-2.098c-3.541-0.423-7.081-0.858-10.634-1.186
				c-2.781-0.256-5.566-0.426-8.354-0.508c-6.359-0.187-12.72-0.189-19.078,0.005c-4.345,0.133-8.688,0.439-12.891,1.668
				c-3.203,0.937-6.297,2.153-8.814,4.447c-4.512,4.111-6.738,9.221-6.613,15.346c0.096,4.72,1.312,9.212,2.748,13.657
				c0.955,2.955,2.086,5.854,2.746,8.901c0.463,2.142,0.882,4.29,0.994,6.485c0.018,0.352,0.023,0.708-0.007,1.058
				c-0.042,0.476-0.302,0.787-0.797,0.842c-0.489,0.055-0.863-0.217-0.951-0.783c-0.13-0.837-0.162-1.688-0.29-2.525
				c-0.562-3.677-1.538-7.249-2.776-10.752c-1.438-4.068-2.679-8.188-3.359-12.46c-0.967-6.075-0.229-11.827,3.235-17.065
				c2.18-3.296,5.053-5.754,8.653-7.409c4.036-1.856,8.294-2.776,12.686-3.126c8.502-0.678,17.016-0.552,25.53-0.293
				c7.923,0.241,15.771,1.262,23.599,2.42c4.531,0.671,8.869,2.066,12.985,4.083c4.156,2.037,7.498,5.047,10.017,8.912
				c2.439,3.743,3.257,7.922,2.945,12.347c-0.204,2.898-1.122,5.593-2.302,8.217c-0.681,1.513-1.327,3.042-2.003,4.558
				c-1.968,4.416-2.792,9.094-3.199,13.869c-0.099,1.161-0.145,2.326-0.256,3.486c-0.052,0.544,0.132,0.833,0.646,1.032
				c1.124,0.434,2.147,1.063,3.159,1.715c3.5,2.253,6.47,7.716,4.174,13.493c-0.844,2.124-2.064,4.018-3.595,5.708
				c-0.343,0.378-0.543,0.79-0.703,1.27c-1.372,4.12-2.78,8.227-4.162,12.344c-1.999,5.957-4.12,11.875-5.716,17.961
				c-0.923,3.52-1.714,7.066-2.4,10.639c-0.71,3.704-0.535,7.358,0.221,11.042c0.788,3.839,1.406,7.714,1.617,11.638
				c0.055,1.024,0.052,2.05-0.208,3.055c-0.287,1.11-0.763,2.102-1.995,2.374c-1.244,0.276-2.193-0.335-2.966-1.243
				c-0.579-0.68-0.947-1.482-1.244-2.322c-0.913-2.576-1.352-5.261-1.85-7.933c-0.181-0.972-0.351-1.95-0.696-2.879
				c-0.413-1.115-0.904-1.363-2.044-1.064c-0.792,0.207-1.517,0.582-2.22,0.988c-3.95,2.284-8.052,4.252-12.274,5.976
				c-0.294,0.12-0.577,0.269-0.907,0.264c-0.392-0.007-0.674-0.182-0.831-0.544c-0.162-0.374-0.058-0.71,0.224-0.961
				c0.206-0.184,0.465-0.322,0.72-0.434c4.332-1.915,8.523-4.105,12.658-6.408c0.742-0.413,1.524-0.744,2.354-0.941
				c1.867-0.442,3.275,0.236,4.069,1.982c0.591,1.3,0.796,2.705,1.054,4.092c0.413,2.222,0.801,4.449,1.49,6.608
				c0.215,0.674,0.449,1.34,0.84,1.938c0.195,0.298,0.415,0.577,0.738,0.743c0.297,0.153,0.551,0.096,0.703-0.221
				c0.201-0.421,0.268-0.874,0.297-1.336c0.117-1.88-0.105-3.74-0.343-5.597c-0.4-3.119-0.938-6.215-1.548-9.298
				c-0.62-3.133-0.495-6.252,0.042-9.375c1.47-8.553,3.94-16.834,6.781-25.017c1.424-4.102,2.801-8.221,4.198-12.332
				c0.109-0.32,0.211-0.643,0.315-0.96c-0.25-0.079-0.352,0.023-0.463,0.105c-4.039,2.988-8.549,5.072-13.199,6.893
				c-1.68,0.658-3.385,1.231-5.139,1.642c-0.702,0.164-1.035,0.499-1.228,1.211c-2.555,9.442-5.48,18.776-8.336,28.129
				c-0.619,2.026-1.344,4.019-2.17,5.972c-1.549,3.662-3.843,6.733-7.141,9.011c-0.756,0.522-1.497,1.066-2.147,1.721
				c-0.603,0.609-1.114,1.284-1.407,2.095c-0.22,0.608-0.137,0.734,0.513,0.814c0.88,0.109,1.736,0.296,2.559,0.639
				c2.004,0.834,3.068,2.307,3.079,4.498c0.008,1.484,0.013,2.968-0.002,4.452c-0.042,3.961-0.307,7.905-0.881,11.827
				c-0.123,0.842-0.296,1.672-0.665,2.444c-0.791,1.656-2.457,1.779-3.501,0.263c-0.409-0.593-0.598-1.274-0.748-1.968
				c-0.496-2.287-0.642-4.618-0.794-6.941c-0.271-4.16-0.664-8.308-1.13-12.45c-0.084-0.75-0.094-0.767-0.85-0.696
				c-2.182,0.207-4.33,0.643-6.49,0.999c-4.654,0.767-9.334,1.034-14.043,0.847c-1.977-0.078-3.953-0.165-5.93-0.235
				c-3.502-0.123-6.964-0.612-10.417-1.159c-4.812-0.763-9.627-1.521-14.364-2.678c-4.973-1.214-9.907-2.57-14.711-4.361
				c-0.959-0.357-0.835-0.495-1.338,0.506c-1.476,2.933-2.906,5.89-4.371,8.829c-0.93,1.865-1.94,3.689-3.023,5.47
				c-0.57,0.937-1.174,1.857-1.983,2.607c-0.724,0.671-1.536,1.193-2.578,0.737c-1.07-0.469-1.3-1.414-1.273-2.462
				c0.032-1.248,0.327-2.449,0.726-3.622c1.297-3.814,2.879-7.517,4.379-11.251c0.632-1.572,1.271-3.141,1.83-4.742
				c1.082-3.1,1.115-6.221,0.356-9.392c-0.806-3.371-1.971-6.632-2.966-9.945c-1.272-4.233-2.341-8.509-2.953-12.893
				c-0.264-1.891-0.432-3.793-0.494-5.698c-0.09-2.759-0.662-5.371-1.876-7.868c-1.079-2.22-2.153-4.452-2.717-6.883
				c-0.533-2.294-0.666-4.595-0.372-6.941c0.674-5.376,4.886-8.381,9.281-8.826c0.665-0.067,1.206-0.263,1.742-0.639
				c5.494-3.862,11.554-6.343,18.194-7.373c2.871-0.445,5.76-0.634,8.66-0.3c5.193,0.598,8.787,3.39,10.985,8.069
				c1.547,3.293,1.902,6.77,1.56,10.349C246.203,243.57,245.601,245.877,244.316,248.216z M305.249,256.857
				c0.355,0.051,0.588-0.036,0.826-0.098c1.781-0.463,3.495-1.124,5.192-1.822c5.254-2.16,10.292-4.666,14.316-8.837
				c1.713-1.775,3.141-3.729,4.097-6.001c1.779-4.23,0.317-8.929-3.517-11.454c-1.882-1.24-3.916-2.153-6.14-2.488
				c-3.513-0.529-7.042-0.436-10.56,0.061c-3.828,0.541-7.372,1.914-10.751,3.729c-5.981,3.212-10.521,7.793-13.216,14.097
				c-1.589,3.716-2.69,7.584-3.549,11.522c-1.332,6.106-2.639,12.216-4.429,18.211c-0.749,2.51-1.659,4.957-2.852,7.289
				c-2.688,5.254-6.872,8.611-12.68,9.84c-2.217,0.469-4.477,0.634-6.739,0.661c-6.768,0.08-13.473-0.536-20.114-1.857
				c-3.413-0.679-6.706-1.705-9.773-3.372c-3.973-2.159-6.939-5.215-8.223-9.648c-0.778-2.684-1.262-5.436-1.39-8.235
				c-0.212-4.623-0.499-9.244-0.451-13.875c0.002-0.232,0.085-0.495-0.157-0.725c-0.287,0.003-0.474,0.236-0.702,0.38
				c-0.755,0.475-1.556,0.825-2.447,0.958c-2.259,0.336-4.286-0.287-6.083-1.605c-6.384-4.683-6.964-13.761-3.16-19.169
				c0.126-0.179,0.374-0.318,0.274-0.713c-2.293,0.987-3.93,2.519-4.623,4.921c-0.702,2.432-0.599,4.888-0.094,7.342
				c0.49,2.378,1.524,4.553,2.591,6.701c1.429,2.876,2.075,5.908,2.161,9.095c0.052,1.943,0.246,3.878,0.536,5.8
				c0.638,4.234,1.694,8.37,2.942,12.462c1.029,3.376,2.249,6.697,2.971,10.161c0.398,1.908,0.616,3.828,0.41,5.786
				c-0.247,2.346-1.007,4.543-1.864,6.713c-1.544,3.907-3.115,7.804-4.662,11.71c-0.455,1.15-0.848,2.324-1.083,3.541
				c-0.094,0.488-0.22,0.994-0.027,1.518c0.484-0.192,0.671-0.549,0.906-0.847c0.79-1.003,1.405-2.117,2.035-3.222
				c1.91-3.347,3.513-6.848,5.205-10.306c0.512-1.046,1.053-2.079,1.615-3.1c0.565-1.027,1.051-1.172,2.186-0.749
				c0.728,0.271,1.455,0.542,2.193,0.784c3.926,1.287,7.895,2.453,11.913,3.387c9.883,2.299,19.848,4.093,30.036,4.361
				c4.067,0.107,8.13,0.184,12.17-0.336c3.326-0.429,6.634-0.989,9.953-1.473c0.391-0.057,0.53-0.239,0.596-0.601
				c0.302-1.673,1.239-2.974,2.444-4.116c0.746-0.707,1.571-1.317,2.396-1.921c2.484-1.819,4.285-4.177,5.577-6.949
				c0.986-2.117,1.775-4.313,2.455-6.54c2.474-8.104,5.013-16.188,7.294-24.349c0.332-1.186,0.67-2.371,1.013-3.583
				c-0.558-0.175-1.041-0.031-1.522,0.031c-1.939,0.248-3.893,0.371-5.796-0.12c-4.722-1.216-7.261-3.901-7.807-8.147
				c-0.462-3.589-0.056-7.154,1.537-10.452c1.732-3.585,4.499-5.824,8.638-6.07c5.667-0.336,8.482,3.093,9.348,6.822
				c0.24,1.033,0.329,2.09,0.349,3.154c0.066,3.461-0.647,6.808-1.45,10.144C305.44,255.759,305.216,256.25,305.249,256.857z
				 M280.626,252.219c-0.424-0.096-0.762-0.181-1.104-0.247c-3.5-0.679-7.021-1.226-10.545-1.769
				c-8.204-1.265-16.391-1.205-24.582,0.075c-0.488,0.076-0.827,0.265-1.129,0.669c-2.321,3.104-5.035,5.814-8.184,8.086
				c-2.561,1.848-5.249,3.448-8.263,4.454c-0.883,0.295-1.779,0.443-2.708,0.379c-1.898-0.131-2.91-1.574-2.374-3.401
				c0.18-0.616,0.499-1.166,0.885-1.678c0.795-1.053,1.764-1.921,2.825-2.697c4.564-3.341,9.672-5.521,15.1-6.973
				c0.997-0.267,1.56-0.773,2.024-1.634c1.597-2.964,1.946-6.164,1.89-9.446c-0.038-2.253-0.527-4.411-1.497-6.452
				c-1.736-3.654-4.484-6.031-8.551-6.69c-2.067-0.335-4.146-0.308-6.233-0.122c-6.557,0.585-12.618,2.614-18.175,6.146
				c-0.188,0.119-0.433,0.193-0.5,0.436c0.066,0.064,0.087,0.099,0.117,0.111c0.229,0.089,0.46,0.173,0.69,0.261
				c2.49,0.946,4.506,2.517,5.923,4.763c2.563,4.061,3.216,8.418,1.568,12.97c-0.488,1.349-0.566,2.664-0.553,4.04
				c0.039,4.238,0.235,8.471,0.391,12.706c0.104,2.835,0.472,5.619,1.021,8.397c0.852,4.31,3.306,7.423,7.016,9.609
				c2.075,1.223,4.299,2.135,6.63,2.753c4.278,1.134,8.639,1.796,13.039,2.192c4.649,0.419,9.305,0.598,13.965,0.13
				c6.349-0.638,10.967-3.771,13.767-9.538c0.974-2.006,1.776-4.079,2.419-6.21C277.602,266.57,279.028,259.438,280.626,252.219z
				 M305.029,245.722c0.039-0.995-0.081-1.978-0.257-2.949c-0.421-2.326-1.564-4.204-3.802-5.122
				c-2.314-0.949-6.372-0.886-8.771,1.89c-0.864,0.999-1.595,2.061-2.064,3.297c-0.928,2.448-1.246,5.007-1.118,7.589
				c0.198,3.989,2.335,6.625,6.966,7.526c2.157,0.42,4.285,0.007,6.414-0.294c0.433-0.061,0.568-0.355,0.658-0.716
				c0.206-0.821,0.426-1.638,0.625-2.46C304.378,251.602,304.949,248.699,305.029,245.722z M216.634,244.839
				c-0.009-2.378-0.57-4.472-1.645-6.427c-1.555-2.828-3.899-4.58-7.086-5.212c-0.739-0.147-1.261,0.028-1.806,0.535
				c-3.323,3.091-4.184,6.936-3.364,11.225c0.542,2.832,1.994,5.183,4.332,6.941c1.017,0.765,2.177,1.207,3.419,1.31
				c2.153,0.178,3.634-0.937,4.646-2.727C216.141,248.697,216.556,246.737,216.634,244.839z M240.203,251.423
				c-0.128-0.098-0.27-0.071-0.404-0.03c-4.839,1.453-9.389,3.501-13.46,6.535c-0.74,0.552-1.404,1.184-1.985,1.901
				c-0.268,0.331-0.504,0.687-0.646,1.089c-0.212,0.598-0.05,0.871,0.579,0.945c0.276,0.033,0.564,0,0.842-0.037
				c0.92-0.123,1.778-0.459,2.616-0.832c4.755-2.122,8.784-5.22,12.206-9.128C240.064,251.736,240.201,251.614,240.203,251.423z
				 M285.842,330.629c0.381-0.758,0.423-1.533,0.533-2.29c0.498-3.428,0.643-6.884,0.78-10.339c0.066-1.657,0.081-3.316,0.087-4.975
				c0.002-0.555-0.011-1.137-0.486-1.56c-0.723-0.644-1.529-1.13-2.492-1.322c-0.717-0.143-0.786-0.091-0.702,0.66
				c0.504,4.488,0.884,8.987,1.185,13.494c0.11,1.652,0.242,3.309,0.57,4.938C285.413,329.703,285.435,330.209,285.842,330.629z"/>
			<path d="M157.081,240.474c-0.22-0.924-0.841-1.517-1.607-1.979c-0.674-0.407-1.433-0.582-2.2-0.729
				c-1.774-0.34-3.573-0.449-5.368-0.588c-3.944-0.305-7.89-0.573-11.834-0.886c-1.619-0.129-3.228-0.353-4.79-0.836
				c-1.197-0.37-2.291-0.931-3.234-1.755c-1.541-1.346-2.017-2.99-1.395-4.965c0.73-2.315,2.262-3.959,4.274-5.204
				c2.982-1.845,6.251-2.913,9.678-3.578c5.127-0.996,10.308-1.161,15.508-1.14c7.917,0.033,15.708,1.012,23.358,3.064
				c1.877,0.503,3.728,1.084,5.448,2.021c0.809,0.441,1.585,0.927,2.28,1.535c2.835,2.48,3.237,6.438,0.928,9.431
				c-1.095,1.42-2.521,2.459-4.072,3.335c-2.304,1.302-4.817,2.007-7.382,2.533c-5.234,1.073-10.531,1.649-15.866,1.893
				c-0.106,0.005-0.212,0.012-0.318,0.006c-0.443-0.027-0.642,0.112-0.562,0.613c0.095,0.591,0.088,1.197,0.148,1.794
				c0.289,2.863,0.045,5.72-0.139,8.573c-0.196,3.031-0.432,6.058-0.589,9.092c-0.361,6.954-0.317,13.914-0.382,20.873
				c-0.003,0.317,0.014,0.641-0.043,0.951c-0.1,0.55-0.552,0.907-1.035,0.874c-0.466-0.032-0.803-0.363-0.892-0.896
				c-0.029-0.173-0.027-0.352-0.026-0.528c0.075-6.853-0.034-13.71,0.323-20.557c0.191-3.667,0.505-7.328,0.717-10.995
				c0.173-2.998,0.278-6-0.088-8.996c-0.056-0.454-0.104-0.804-0.711-0.815c-3.075-0.057-6.143-0.104-9.188,0.474
				c-3.163,0.601-5.679,2.253-7.725,4.674c-2.322,2.747-4.009,5.889-5.574,9.102c-2.66,5.463-4.823,11.145-7.336,16.674
				c-1.154,2.539-2.243,5.107-3.365,7.66c-0.263,0.599-0.66,0.823-1.137,0.661c-0.447-0.152-0.699-0.65-0.557-1.227
				c0.101-0.408,0.28-0.798,0.434-1.193c2.133-5.461,4.639-10.764,6.886-16.176c1.477-3.557,3.075-7.056,4.896-10.45
				c1.087-2.027,2.324-3.957,3.74-5.773c3.023-3.875,6.995-5.93,11.88-6.303c2.011-0.153,4.019-0.248,6.034-0.174
				C156.477,240.576,156.763,240.626,157.081,240.474z M155.467,220.823c-6.699-0.006-10.251,0.284-15.217,1.262
				c-2.932,0.578-5.713,1.577-8.266,3.153c-1.442,0.891-2.626,2.024-3.254,3.65c-0.651,1.686-0.334,2.697,1.18,3.722
				c1.169,0.792,2.495,1.142,3.863,1.363c3.039,0.491,6.115,0.584,9.176,0.836c3.273,0.269,6.556,0.397,9.817,0.83
				c2.953,0.392,5.382,1.473,6.446,4.524c0.127,0.364,0.388,0.468,0.741,0.452c0.353-0.016,0.706-0.016,1.06-0.025
				c3.502-0.087,6.973-0.519,10.439-0.981c2.906-0.388,5.789-0.922,8.584-1.838c2.276-0.746,4.36-1.843,6.038-3.594
				c1.443-1.505,1.923-3.268,1.214-5.267c-0.447-1.259-1.414-2.088-2.513-2.775c-1.602-1.002-3.36-1.631-5.17-2.132
				C171.555,221.77,163.346,220.765,155.467,220.823z"/>
			<path d="M189.37,280.309c0.021,0.606-0.238,1.01-0.683,1.138c-0.461,0.132-0.892-0.053-1.145-0.53
				c-0.114-0.215-0.181-0.459-0.243-0.697c-2.308-8.849-4.96-17.604-7.175-26.479c-0.761-3.049-1.485-6.106-2.225-9.16
				c-0.033-0.137-0.067-0.276-0.078-0.416c-0.044-0.566,0.198-0.97,0.648-1.064c0.493-0.102,0.827,0.14,1.02,0.563
				c0.13,0.287,0.2,0.602,0.284,0.908c1.997,7.324,3.791,14.701,5.875,22.002c1.221,4.278,2.348,8.582,3.515,12.875
				C189.247,279.755,189.312,280.067,189.37,280.309z"/>
			<g>
				<path style="fill:#0F0F0F;" d="M285.956,108.157c-0.007,0.123-0.035,0.228-0.014,0.323c0.529,2.499,0.611,5.036,0.747,7.578
					c0.178,3.306-0.164,6.563-0.693,9.802c-0.428,2.622-1.455,5.012-3.329,6.969c-0.17,0.178-0.318,0.389-0.516,0.528
					c-1.697,1.185-3.495,2.084-5.62,2.242c-3.278,0.244-6.374-0.387-9.396-1.634c-3.71-1.53-7.141-3.544-10.4-5.856
					c-1.088-0.772-2.042-1.734-3.075-2.625c-0.612,0.291-1.125,0.733-1.625,1.167c-1.389,1.203-2.913,2.227-4.382,3.319
					c-1.696,1.262-3.374,2.55-5.155,3.706c-1.297,0.842-2.626,1.653-3.858,2.6c-0.284,0.218-0.591,0.38-0.967,0.379
					c-0.768-0.003-1.145-0.596-0.834-1.297c0.156-0.351,0.453-0.528,0.755-0.711c2.053-1.248,3.979-2.676,5.853-4.174
					c0.992-0.792,2.082-1.446,3.096-2.213c1.718-1.298,3.343-2.72,5.142-3.91c0.145-0.096,0.269-0.225,0.392-0.349
					c0.167-0.169,0.205-0.318,0.022-0.539c-0.801-0.964-1.27-2.101-1.722-3.259c-0.709-1.815-0.6-3.611,0.077-5.372
					c0.548-1.426,1.404-2.677,2.48-3.783c1.694-1.741,3.69-3.055,5.809-4.194c1.739-0.934,3.558-1.701,5.359-2.511
					c1.782-0.801,3.651-1.301,5.483-1.922c0.994-0.337,2.072-0.441,3.138-0.176c1.487,0.371,2.129,1.472,1.713,2.947
					c-0.406,1.44-1.395,2.525-2.286,3.653c-0.653,0.826-1.417,1.569-2.174,2.305c-2.025,1.967-4.065,3.922-6.203,5.768
					c-2.403,2.074-4.822,4.13-7.241,6.186c-0.374,0.318-0.786,0.591-1.21,0.906c1.516,1.7,3.313,2.997,5.213,4.141
					c1.328,0.8,2.65,1.615,4.035,2.325c2.208,1.132,4.488,2.061,6.886,2.695c2.193,0.58,4.386,0.646,6.592,0.036
					c2.24-0.619,3.696-2.114,4.708-4.121c0.903-1.792,1.322-3.733,1.544-5.698c0.401-3.547,0.556-7.104,0.106-10.669
					c-0.168-1.33-0.203-2.677-0.489-3.994c-0.134-0.619-0.303-1.232-0.429-1.852c-0.064-0.315-0.267-0.478-0.517-0.626
					c-1.549-0.922-3.005-1.978-4.458-3.042c-1.093-0.799-2.082-1.717-2.92-2.753c-1.825-2.255-1.647-4.826,0.586-6.89
					c2.086-1.929,4.526-2.724,7.324-1.858c2.238,0.692,3.842,2.085,4.348,4.468c0.253,1.193,0.081,2.38-0.255,3.558
					c-0.441,1.549-1.229,2.923-2.012,4.305c-0.531,0.937-0.537,0.944,0.41,1.531c2.552,1.583,5.237,2.925,7.883,4.338
					c2.366,1.263,4.766,2.464,7.11,3.768c4.442,2.47,8.846,5.007,13.281,7.489c4.251,2.379,8.533,4.699,12.777,7.09
					c2.121,1.195,4.2,2.468,6.274,3.745c5.323,3.277,10.737,6.398,16.316,9.215c3.971,2.006,8.057,3.768,12.329,5.049
					c1.998,0.599,1.947,0.783,2.066-1.495c0.109-2.088,0.658-4.103,2.005-5.704c1.844-2.191,4.907-2.451,6.87,0.215
					c2.955,4.012-0.046,8.356-3.233,9.289c-1.066,0.312-2.119,0.524-3.217,0.507c-0.508-0.008-0.69,0.183-0.672,0.683
					c0.065,1.871,0.106,3.743,0.16,5.615c0.007,0.247,0.047,0.493,0.049,0.739c0.032,3.954,0.028,7.909,0.098,11.863
					c0.088,4.908,0.096,9.816,0.156,14.724c0.021,1.727,0.014,3.456,0.051,5.183c0.06,2.824,0.013,5.654,0.176,8.472
					c0.13,2.259,0.037,4.522,0.203,6.772c0.167,2.259,0.057,4.521,0.208,6.771c0.135,2.017,0.006,4.02-0.003,6.03
					c-0.014,2.861-0.183,5.719-0.188,8.575c-0.004,2.543-0.221,5.077-0.195,7.614c0.026,2.58-0.214,5.149-0.212,7.723
					c0.002,1.91-0.206,3.802-0.255,5.703c-0.097,3.78-0.486,7.538-0.786,11.3c-0.224,2.814-0.728,5.598-1.318,8.365
					c-0.342,1.602-0.691,1.395,1.099,1.88c3.011,0.817,5.911,1.921,8.552,3.608c1.128,0.721,2.21,1.521,3.269,2.342
					c1.618,1.255,3.201,2.565,4.652,4.006c1.146,1.138,2.239,2.366,2.846,3.906c0.448,1.137,0.162,1.596-1.035,1.908
					c-1.813,0.472-3.66,0.722-5.513,0.989c-4.935,0.71-9.908,0.932-14.87,1.294c-0.775,0.057-1.553,0.065-2.33,0.087
					c-3.07,0.086-6.137,0.234-9.208,0.297c-2.371,0.048-4.724-0.141-7.085-0.19c-3.798-0.079-7.499-0.856-11.241-1.34
					c-0.561-0.073-1.113-0.219-1.62-0.476c-0.459-0.232-0.64-0.664-0.516-1.148c0.121-0.471,0.437-0.723,0.916-0.728
					c0.28-0.003,0.567,0.029,0.839,0.093c4.453,1.048,8.993,1.472,13.54,1.67c4.938,0.215,9.882,0.01,14.817-0.297
					c0.705-0.044,1.412-0.082,2.118-0.086c2.863-0.017,5.714-0.31,8.554-0.58c3.018-0.286,6.06-0.417,9.047-1.003
					c0.405-0.079,0.807-0.172,1.305-0.279c-0.449-0.816-0.933-1.506-1.515-2.112c-3.105-3.232-6.601-5.953-10.613-7.976
					c-1.96-0.988-4.028-1.693-6.154-2.25c-0.626-0.164-0.783,0.082-0.973,0.572c-0.73,1.88-1.577,3.694-2.803,5.324
					c-1.396,1.855-3.057,3.386-4.995,4.668c-1.708,1.13-3.625,1.579-5.574,1.835c-1.987,0.261-3.921-0.286-5.526-1.44
					c-1.568-1.127-2.414-2.743-1.938-4.794c0.25-1.077,0.646-2.091,1.33-2.973c1.069-1.378,2.309-2.519,3.856-3.401
					c3.554-2.026,7.377-2.717,11.395-2.62c0.74,0.018,1.476,0.144,2.215,0.214c0.821,0.078,0.832,0.078,1.039-0.757
					c0.436-1.749,0.714-3.523,0.908-5.316c0.253-2.352,0.685-4.694,0.794-7.051c0.156-3.384,0.573-6.751,0.581-10.145
					c0.004-1.764,0.268-3.529,0.241-5.291c-0.044-2.964,0.297-5.917,0.182-8.882c-0.034-0.879,0.092-1.763,0.116-2.646
					c0.09-3.389,0.195-6.779,0.243-10.169c0.036-2.578,0.096-5.162-0.046-7.733c-0.125-2.258-0.024-4.521-0.203-6.77
					c-0.174-2.187-0.076-4.375-0.188-6.559c-0.24-4.656-0.162-9.316-0.237-13.974c-0.037-2.33,0.068-4.66-0.022-6.987
					c-0.179-4.658-0.085-9.321-0.215-13.977c-0.097-3.459,0.007-6.917-0.117-10.374c-0.022-0.626-0.215-0.851-0.798-0.975
					c-4.489-0.951-8.644-2.809-12.767-4.749c-4.156-1.956-8.149-4.217-12.108-6.535c-3.837-2.247-7.619-4.59-11.467-6.818
					c-3.237-1.874-6.539-3.638-9.806-5.461c-2.65-1.479-5.298-2.963-7.936-4.464c-5.062-2.88-10.118-5.773-15.297-8.438
					c-2.385-1.228-4.736-2.517-7.11-3.764C286.369,108.271,286.207,108.127,285.956,108.157z M253.954,122.456
					c0.201-0.136,0.325-0.202,0.429-0.292c1.78-1.553,3.623-3.031,5.426-4.556c2.02-1.708,3.955-3.517,5.943-5.263
					c1.567-1.376,3.045-2.842,4.423-4.403c0.769-0.871,1.507-1.781,2.044-2.822c0.35-0.679,0.207-0.922-0.539-0.882
					c-0.917,0.049-1.826,0.205-2.7,0.499c-2.708,0.91-5.333,2.013-7.917,3.236c-2.648,1.253-5.033,2.858-7.056,4.96
					c-1.084,1.126-1.874,2.443-1.956,4.109C251.951,119.093,252.583,120.848,253.954,122.456z M360.941,268.403
					c-2.806-0.487-5.442-0.495-8.096,0.182c-2.004,0.511-3.943,1.15-5.593,2.399c-1.41,1.068-2.676,2.304-3.145,4.127
					c-0.374,1.453,0.213,2.678,1.572,3.284c3.668,1.638,6.833,0.393,9.748-1.811c1.346-1.018,2.421-2.357,3.368-3.779
					C359.699,271.447,360.312,269.966,360.941,268.403z M285.97,97.737c-0.108-1.812-0.87-3.311-2.623-3.98
					c-1.474-0.562-2.832-0.299-4.205,0.22c-1.185,0.447-1.963,1.321-2.495,2.45c-0.33,0.701-0.309,1.383,0.097,2.016
					c0.398,0.62,0.813,1.233,1.353,1.752c1.432,1.374,3.048,2.493,4.738,3.52c0.446,0.271,0.713,0.188,0.935-0.23
					c0.66-1.242,1.434-2.428,1.811-3.806C285.758,99.032,285.939,98.388,285.97,97.737z M367.015,146.946
					c0.242-0.025,0.628-0.068,1.014-0.107c1.661-0.166,2.804-1.102,3.572-2.507c0.976-1.785,0.219-3.968-1.572-4.744
					c-0.455-0.197-0.873-0.192-1.327-0.011c-0.9,0.358-1.342,1.118-1.712,1.927c-0.655,1.431-0.925,2.958-1.033,4.518
					C365.895,146.923,365.944,146.966,367.015,146.946z"/>
				<path d="M253.38,147.822c-0.034-0.549,0.127-0.829,0.263-1.114c1.935-4.072,3.92-8.12,6.11-12.064
					c0.103-0.185,0.188-0.381,0.308-0.553c0.278-0.397,0.656-0.53,1.107-0.329c0.408,0.182,0.689,0.723,0.526,1.137
					c-0.271,0.686-0.591,1.355-0.933,2.009c-1.716,3.279-3.251,6.644-4.854,9.977c-0.228,0.474-0.414,0.985-0.808,1.354
					c-0.321,0.3-0.705,0.465-1.161,0.292C253.509,148.369,253.401,148.012,253.38,147.822z"/>
				<path d="M269.936,150.727c0.298-4.083,0.596-7.987,1.409-11.829c0.037-0.173,0.051-0.352,0.107-0.518
					c0.196-0.59,0.612-0.874,1.094-0.766c0.492,0.111,0.734,0.519,0.647,1.154c-0.111,0.804-0.307,1.6-0.359,2.406
					c-0.205,3.169-0.704,6.312-0.839,9.486c-0.009,0.21-0.003,0.429-0.059,0.628c-0.146,0.517-0.551,0.716-1.046,0.729
					c-0.473,0.012-0.862-0.337-0.947-0.835C269.906,150.976,269.936,150.759,269.936,150.727z"/>
			</g>
			<g>
				<path style="fill:#0F0F0F;" d="M205.155,201.461c-1.155-1.564-2.469-2.934-4.037-4.042c-4.373-3.093-9.091-5.402-14.408-6.387
					c-3.899-0.722-7.777-0.972-11.649,0.133c-0.236,0.067-0.481,0.138-0.723,0.145c-0.423,0.013-0.768-0.179-0.921-0.583
					c-0.151-0.395-0.052-0.766,0.258-1.067c0.236-0.229,0.533-0.339,0.842-0.422c2.648-0.714,5.332-1.016,8.077-0.802
					c7.156,0.559,13.599,3.022,19.438,7.157c2.104,1.49,3.795,3.373,5.348,5.4c0.107,0.14,0.207,0.288,0.286,0.445
					c0.49,0.968,0.134,1.782-0.931,1.992c-0.934,0.185-1.883,0.298-2.83,0.405c-4.017,0.457-8.036,0.413-12.059,0.044
					c-3.72-0.341-7.326-1.161-10.751-2.651c-4.497-1.955-8.302-4.804-11.047-8.938c-0.232-0.35-0.447-0.573-0.918-0.545
					c-1.952,0.119-3.843,0.526-5.709,1.088c-0.454,0.137-0.448,0.465-0.485,0.824c-0.185,1.791-0.371,3.583-0.579,5.372
					c-0.094,0.806-0.223,1.609-0.37,2.407c-0.091,0.491,0.031,0.693,0.567,0.73c2.153,0.148,4.274,0.525,6.372,1.029
					c0.86,0.207,1.701,0.471,2.508,0.834c2.856,1.287,4.407,3.429,4.353,6.632c-0.033,1.952-0.347,3.868-0.706,5.778
					c-0.6,3.192-1.165,6.393-2.134,9.503c-0.337,1.081-0.719,2.144-1.314,3.116c-1.01,1.649-2.464,2.688-4.407,2.718
					c-4.59,0.07-9.187,0.123-13.745-0.595c-0.837-0.132-1.653-0.365-2.438-0.696c-1.585-0.669-2.554-1.839-2.906-3.522
					c-0.34-1.627-0.504-3.28-0.733-4.924c-0.589-4.233-1.143-8.47-1.402-12.74c-0.03-0.493-0.056-0.99-0.029-1.482
					c0.035-0.643,0.37-0.995,0.87-0.993c0.493,0.002,0.833,0.34,0.881,0.994c0.147,2.009,0.368,4.009,0.632,6.005
					c0.542,4.096,1.038,8.198,1.654,12.284c0.223,1.478,1.017,2.348,2.414,2.753c1.158,0.336,2.34,0.537,3.538,0.642
					c3.383,0.297,6.778,0.24,10.169,0.306c0.141,0.003,0.283-0.007,0.424-0.004c1.808,0.043,2.997-0.839,3.721-2.451
					c0.845-1.882,1.329-3.874,1.757-5.875c0.649-3.038,1.298-6.079,1.64-9.173c0.058-0.526,0.11-1.055,0.115-1.584
					c0.021-2.381-1-3.93-3.192-4.876c-1.34-0.578-2.764-0.845-4.181-1.137c-1.386-0.286-2.796-0.394-4.196-0.578
					c-0.572-0.075-0.734,0.162-0.836,0.652c-0.143,0.69-0.326,1.375-0.542,2.046c-0.284,0.882-0.734,1.678-1.347,2.382
					c-0.874,1.003-1.945,1.616-3.285,1.731c-1.246,0.107-2.478,0.012-3.664-0.375c-1.104-0.359-2.03-0.986-2.583-2.06
					c-0.758-1.471-0.452-3.046,0.82-4.111c0.769-0.644,1.659-1.071,2.604-1.384c1.887-0.625,3.812-1.057,5.811-1.053
					c0.448,0.001,0.721-0.086,0.799-0.599c0.361-2.375,0.69-4.753,0.868-7.15c0.01-0.137-0.015-0.277-0.026-0.454
					c-0.463-0.093-0.832,0.146-1.216,0.267c-2.802,0.879-5.63,1.604-8.576,1.831c-2.737,0.21-5.435-0.076-8.121-0.523
					c-3.956-0.659-7.765-1.799-11.368-3.591c-3.106-1.544-5.794-3.644-8.199-6.119c-2.492-2.564-4.76-5.316-6.803-8.251
					c-0.384-0.552-0.758-1.113-0.971-1.756c-0.382-1.156,0.139-2.002,1.356-2.075c5.118-0.308,10.235-0.459,15.35,0.104
					c3.736,0.411,7.383,1.126,10.879,2.587c5.546,2.317,10.026,5.87,13.212,11c0.093,0.15,0.202,0.292,0.28,0.449
					c0.257,0.519,0.624,0.675,1.209,0.529c0.82-0.204,1.66-0.349,2.499-0.456c0.583-0.074,0.762-0.341,0.737-0.907
					c-0.092-2.112-0.536-4.122-1.551-5.996c-1.068-1.972-2.483-3.691-3.903-5.404c-3.073-3.707-5.814-7.638-8.302-11.762
					c-2.822-4.677-4.507-9.705-5.162-15.117c-0.429-3.546-0.788-7.091-0.809-10.665c-0.002-0.352-0.034-0.707,0.087-1.05
					c0.266-0.759,0.995-1.054,1.704-0.674c0.185,0.099,0.351,0.237,0.513,0.373c5.071,4.268,8.881,9.452,11.343,15.615
					c1.436,3.595,2.31,7.335,2.882,11.153c0.062,0.416,0.085,0.841,0.329,1.328c0.32-1.387,0.6-2.69,0.923-3.982
					c1.747-6.984,4.688-13.382,9.348-18.927c2.227-2.651,4.854-4.826,7.87-6.529c0.184-0.104,0.369-0.21,0.562-0.297
					c0.989-0.443,1.746-0.15,2.112,0.868c0.336,0.935,0.43,1.926,0.576,2.905c0.951,6.363,0.056,12.456-2.657,18.286
					c-1.34,2.88-3.154,5.429-5.356,7.71c-1.523,1.577-3.153,3.041-4.766,4.523c-1.483,1.363-2.984,2.709-4.226,4.308
					c-0.26,0.334-0.483,0.696-0.737,1.035c-0.244,0.328-0.219,0.608,0.004,0.96c0.982,1.552,1.932,3.124,2.897,4.687
					c0.071,0.115,0.124,0.255,0.332,0.294c0.294-0.109,0.383-0.439,0.541-0.695c2.86-4.66,6.522-8.603,10.759-12.028
					c4.413-3.567,9.499-5.649,15.021-6.741c3.433-0.679,6.914-1.039,10.384-1.464c2.386-0.293,4.75-0.701,7.11-1.143
					c0.242-0.045,0.486-0.118,0.73-0.118c1.028,0.001,1.53,0.838,1.034,1.738c-0.186,0.338-0.442,0.637-0.672,0.95
					c-0.963,1.312-1.816,2.695-2.628,4.103c-5.016,8.692-12.378,14.539-21.735,17.996c-6.108,2.257-12.417,3.791-18.737,5.291
					c-1.03,0.244-2.067,0.462-3.097,0.705c-0.59,0.139-0.963,0.932-0.699,1.47c0.125,0.256,0.359,0.172,0.556,0.125
					c0.652-0.155,1.298-0.34,1.952-0.485c1.314-0.291,2.653-0.396,3.993-0.495c0.776-0.057,1.353,0.207,1.759,0.911
					c1.701,2.95,4.166,5.141,7.005,6.944c3.677,2.335,7.75,3.567,12.025,4.138c4.677,0.625,9.368,0.672,14.055,0.041
					C204.672,201.702,204.898,201.747,205.155,201.461z M207.507,160.857c-0.277-0.144-0.556-0.038-0.825,0.013
					c-1.875,0.355-3.771,0.559-5.661,0.808c-3.325,0.438-6.668,0.758-9.951,1.473c-4.79,1.043-9.23,2.881-13.101,5.942
					c-4.277,3.382-7.933,7.33-10.761,12.014c-0.292,0.484-0.568,0.979-0.888,1.444c-0.795,1.154-1.747,1.138-2.489-0.028
					c-0.171-0.268-0.32-0.549-0.487-0.82c-1.113-1.803-2.187-3.632-3.36-5.396c-0.592-0.891-0.593-1.613-0.016-2.515
					c1.136-1.776,2.551-3.291,4.071-4.723c1.8-1.695,3.662-3.329,5.413-5.074c6.712-6.687,9.281-14.82,8.285-24.157
					c-0.096-0.898-0.128-1.818-0.455-2.693c-0.407,0.004-0.676,0.257-0.967,0.437c-2.236,1.39-4.223,3.079-5.947,5.069
					c-4.486,5.176-7.313,11.201-9.083,17.768c-0.866,3.212-1.342,6.498-1.892,9.771c-0.065,0.385-0.139,0.768-0.317,1.116
					c-0.211,0.412-0.554,0.638-1.029,0.604c-0.435-0.031-0.715-0.281-0.858-0.681c-0.071-0.198-0.123-0.406-0.159-0.613
					c-0.215-1.253-0.439-2.504-0.628-3.76c-0.467-3.108-0.868-6.229-1.704-9.267c-1.895-6.885-5.158-12.972-10.517-17.815
					c-0.187-0.169-0.316-0.496-0.71-0.37c0,0.49-0.02,0.983,0.003,1.474c0.159,3.391,0.569,6.755,1.135,10.101
					c0.546,3.229,1.555,6.303,3.106,9.192c1.606,2.991,3.377,5.879,5.344,8.647c1.987,2.796,4.239,5.384,6.323,8.104
					c1.74,2.271,3.086,4.733,3.509,7.612c0.087,0.594,0.123,1.194,0.195,1.79c0.1,0.833,0.106,0.839,0.887,0.668
					c0.793-0.174,1.583-0.359,2.373-0.546c6.32-1.501,12.636-3.016,18.738-5.291c7.04-2.625,13.04-6.696,17.656-12.693
					c1.794-2.33,3.186-4.919,4.751-7.395C207.524,161.016,207.503,160.931,207.507,160.857z M117.887,175.467
					c0.056,0.496,0.29,0.726,0.468,0.98c1.872,2.661,3.946,5.155,6.18,7.521c3.208,3.397,6.999,5.893,11.398,7.48
					c3.036,1.096,6.163,1.79,9.353,2.204c2.923,0.379,5.84,0.369,8.745-0.223c2.079-0.423,4.1-1.043,6.115-1.69
					c0.908-0.292,0.914-0.294,0.928-1.236c0.004-0.264,0.109-0.561-0.163-0.795c-0.826,0.145-1.66,0.284-2.491,0.437
					c-2.093,0.383-2.392,0.254-3.561-1.563c-0.134-0.208-0.26-0.42-0.399-0.624c-1.173-1.726-2.435-3.376-3.978-4.798
					c-3.48-3.207-7.6-5.233-12.125-6.439c-3.941-1.051-7.999-1.33-12.059-1.463C123.514,175.167,120.736,175.4,117.887,175.467z
					 M155.308,208.938c1.667,0.203,2.702-0.737,3.403-2.192c0.292-0.606,0.468-1.255,0.613-1.909
					c0.172-0.776,0.102-0.87-0.696-0.835c-1.956,0.085-3.831,0.538-5.618,1.338c-0.287,0.128-0.562,0.3-0.81,0.493
					c-0.797,0.619-0.848,1.464-0.136,2.176c0.356,0.356,0.8,0.574,1.283,0.705C153.962,208.883,154.589,208.967,155.308,208.938z"/>
			</g>
		</g>
	</g>
	<g>
		<g>
			<text transform="matrix(1 0 0 1 152.6206 365.0178)" style="font-family:'Montserrat-Medium'; font-size:32.2613px;">FURNITURE</text>
		</g>
		<text transform="matrix(1 0 0 1 193.5647 393.6372)" style="font-family:'Montserrat-Thin'; font-size:19.3374px;">Your Slogan</text>
	</g>
</g>
</svg>
